<?xml version="1.0" encoding="UTF-8" standalone="no"?>
<svg
   width="64"
   height="64"
   version="1.1"
   id="svg2"
   sodipodi:docname="tai-logo.svg"
   xml:space="preserve"
   inkscape:version="1.3.2 (091e20e, 2023-11-25, custom)"
   xmlns:inkscape="http://www.inkscape.org/namespaces/inkscape"
   xmlns:sodipodi="http://sodipodi.sourceforge.net/DTD/sodipodi-0.dtd"
   xmlns="http://www.w3.org/2000/svg"
   xmlns:svg="http://www.w3.org/2000/svg"><defs
     id="defs2" /><sodipodi:namedview
     id="namedview2"
     pagecolor="#ffffff"
     bordercolor="#000000"
     borderopacity="0.25"
     inkscape:showpageshadow="2"
     inkscape:pageopacity="0.0"
     inkscape:pagecheckerboard="0"
     inkscape:deskcolor="#d1d1d1"
     showguides="true"
     inkscape:zoom="14.789063"
     inkscape:cx="38.880085"
     inkscape:cy="40.401479"
     inkscape:window-width="3840"
     inkscape:window-height="2089"
     inkscape:window-x="-8"
     inkscape:window-y="-8"
     inkscape:window-maximized="1"
     inkscape:current-layer="svg2"><sodipodi:guide
       position="64.403868,48.508646"
       orientation="1,0"
       id="guide4"
       inkscape:locked="false" /><sodipodi:guide
       position="30.313328,30.291962"
       orientation="0.70710678,-0.70710678"
       id="guide5"
       inkscape:locked="false"
       inkscape:label=""
       inkscape:color="rgb(0,134,229)" /></sodipodi:namedview><path
     d="M31.9 0h24.036A8 8 0 0 1 64 8.073V32.1C64 49.722 49.722 64 32.1 64h-.182A31.89 31.89 0 0 1 0 32.109C0 14.437 14.254.182 31.9 0z"
     fill="#25c16f"
     id="path1"
     style="fill:#2c85ff;fill-opacity:1" /><path
     d="M31.9 14.255c-8.093 0-14.654 6.56-14.654 14.654v9.964c.058 2.667 2.206 4.815 4.873 4.873h4.145V32.3h-5.6v-3.2c.34-6.026 5.327-10.74 11.364-10.74S43.04 23.065 43.38 29.1v3.2H37.7v11.454h3.745v.182c-.04 2.474-2.035 4.47-4.5 4.5h-4.473c-.364 0-.764.182-.764.545a.8.8 0 0 0 .764.764h4.5c3.205-.02 5.798-2.613 5.818-5.818v-.364a4.8 4.8 0 0 0 3.745-4.727V29.1c.182-8.254-6.364-14.836-14.654-14.836z"
     fill="#fff"
     id="path2" /><g
     id="g3"
     transform="matrix(-0.32644463,0,0,0.32644463,67.221848,-3.3485812)"
     style="fill:#f9f9f9"><path
       d="M 43.16,65.512 C 41.7303,65.35184 37.66,64.59012 36.0311,62.9729 34.41,61.3518 33.6522,57.2737 33.492,55.844 c -0.07813,-0.76172 -0.73047,-1.3398 -1.4883,-1.3398 -0.76953,0 -1.4102,0.57812 -1.4883,1.3398 -0.14844,1.4297 -0.91016,5.5 -2.5391,7.1289 -1.6211,1.6211 -5.6992,2.3789 -7.1289,2.5391 -0.76172,0.07813 -1.3398,0.73047 -1.3398,1.4883 0,0.76172 0.57813,1.4102 1.3398,1.4883 1.4297,0.14844 5.5,0.91016 7.1289,2.5391 1.6289,1.6289 2.3789,5.6992 2.5391,7.1289 0.07813,0.76172 0.73047,1.3398 1.4883,1.3398 0.76172,0 1.4102,-0.57812 1.4883,-1.3398 0.16016,-1.4297 0.92187,-5.5 2.5391,-7.1289 1.6211,-1.6289 5.6992,-2.3789 7.1289,-2.5391 0.76172,-0.07813 1.3398,-0.73047 1.3398,-1.4883 0,-0.76172 -0.57812,-1.4102 -1.3398,-1.4883 z"
       id="path1-6"
       style="fill:#f9f9f9" /><path
       d="m 79.512,43.012 c -0.10938,-0.01172 -11.121,-1.25 -15.52,-5.6484 -4.3984,-4.3984 -5.6289,-15.41 -5.6484,-15.52 -0.07813,-0.76172 -0.71875,-1.3398 -1.4883,-1.3398 -0.76955,0 -1.4102,0.57812 -1.4883,1.3398 -0.01172,0.10938 -1.25,11.121 -5.6484,15.52 -4.3984,4.3984 -15.41,5.6289 -15.52,5.6484 -0.76172,0.07813 -1.3398,0.73047 -1.3398,1.4883 0,0.76172 0.57812,1.4102 1.3398,1.4883 0.10938,0.01172 11.121,1.25 15.52,5.6484 4.3984,4.3984 5.6289,15.41 5.6484,15.52 0.07812,0.76172 0.71875,1.3398 1.4883,1.3398 0.76955,0 1.4102,-0.57812 1.4883,-1.3398 0.01172,-0.10938 1.25,-11.121 5.6484,-15.52 4.3984,-4.3984 15.41,-5.6289 15.52,-5.6484 0.76172,-0.07813 1.3398,-0.73047 1.3398,-1.4883 0,-0.76172 -0.57812,-1.4102 -1.3398,-1.4883 z"
       id="path2-4"
       style="fill:#f9f9f9" /><path
       d="m 34.5,30.5 c 0,5.332 -8,5.332 -8,0 0,-5.332 8,-5.332 8,0"
       id="path3"
       style="fill:#f9f9f9" /></g></svg>
